<svg xmlns="http://www.w3.org/2000/svg" version="1.1" viewBox="0 0 1881 513"
     style="shape-rendering:geometricPrecision; text-rendering:geometricPrecision; image-rendering:optimizeQuality; fill-rule:evenodd; clip-rule:evenodd"
     xmlns:xlink="http://www.w3.org/1999/xlink">
    <g>
        <path style="opacity:0.966" fill="#01689b"
              d="M 177.5,-0.5 C 381.5,-0.5 585.5,-0.5 789.5,-0.5C 794.02,2.20411 796.853,6.20411 798,11.5C 798.996,142.914 798.663,274.247 797,405.5C 796.097,406.701 794.931,407.535 793.5,408C 720.167,408.5 646.834,408.667 573.5,408.5C 573.667,439.168 573.5,469.835 573,500.5C 571.248,504.588 568.415,507.754 564.5,510C 459.042,511.158 353.709,511.991 248.5,512.5C 167.167,512.5 85.8333,512.5 4.5,512.5C 2.80363,510.475 1.13696,508.475 -0.5,506.5C -0.5,400.5 -0.5,294.5 -0.5,188.5C 3.0502,182.55 8.38353,179.383 15.5,179C 38.8333,178.667 62.1667,178.333 85.5,178C 77.0369,171.206 68.8703,164.039 61,156.5C 57.4427,152.162 57.9427,148.329 62.5,145C 73.9994,141.636 84.9994,142.969 95.5,149C 113.629,164.127 131.462,179.627 149,195.5C 152.02,199.274 152.187,203.107 149.5,207C 131.784,221.051 113.784,234.717 95.5,248C 81.7083,250.053 69.0416,247.053 57.5,239C 53.1779,235.473 52.8446,231.806 56.5,228C 66.7848,220.716 76.7848,213.05 86.5,205C 66.5028,204.5 46.5028,204.333 26.5,204.5C 26.5,298.833 26.5,393.167 26.5,487.5C 149.831,486.68 273.165,486.013 396.5,485.5C 396.5,459.833 396.5,434.167 396.5,408.5C 324.833,408.667 253.166,408.5 181.5,408C 177.074,405.002 174.241,400.835 173,395.5C 172.333,265.5 172.333,135.5 173,5.5C 173.979,3.03244 175.479,1.03244 177.5,-0.5 Z M 197.5,26.5 C 389.833,26.5 582.167,26.5 774.5,26.5C 774.5,144.833 774.5,263.167 774.5,381.5C 582.167,381.5 389.833,381.5 197.5,381.5C 197.5,263.167 197.5,144.833 197.5,26.5 Z M 425.5,408.5 C 465.5,408.5 505.5,408.5 545.5,408.5C 545.5,434.167 545.5,459.833 545.5,485.5C 505.5,485.5 465.5,485.5 425.5,485.5C 425.5,459.833 425.5,434.167 425.5,408.5 Z"/>
        <path style="opacity:0.951" fill="#01689b"
              d="M 266.5,116.5 C 278.838,116.333 291.171,116.5 303.5,117C 355.667,167.167 407.833,217.333 460,267.5C 460.5,217.168 460.667,166.834 460.5,116.5C 468.5,116.5 476.5,116.5 484.5,116.5C 484.5,174.5 484.5,232.5 484.5,290.5C 472.495,290.667 460.495,290.5 448.5,290C 396.03,240.531 343.864,190.698 292,140.5C 291.5,190.499 291.333,240.499 291.5,290.5C 283.167,290.5 274.833,290.5 266.5,290.5C 266.5,232.5 266.5,174.5 266.5,116.5 Z"/>
        <path style="opacity:0.968" fill="#01689b"
              d="M 547.5,116.5 C 555.5,116.5 563.5,116.5 571.5,116.5C 571.5,167.833 571.5,219.167 571.5,270.5C 616.167,270.5 660.833,270.5 705.5,270.5C 705.5,277.167 705.5,283.833 705.5,290.5C 652.833,290.5 600.167,290.5 547.5,290.5C 547.5,232.5 547.5,174.5 547.5,116.5 Z"/>
        <path style="opacity:0.962" fill="#000000"
              d="M 867.5,114.5 C 921.859,114.035 976.192,114.535 1030.5,116C 1047.11,118.944 1056.61,128.778 1059,145.5C 1061.24,162.622 1060.57,179.622 1057,196.5C 1053.93,205.909 1047.76,212.409 1038.5,216C 1031.67,218.232 1024.67,219.565 1017.5,220C 975.501,220.5 933.501,220.667 891.5,220.5C 891.5,243.167 891.5,265.833 891.5,288.5C 883.5,288.5 875.5,288.5 867.5,288.5C 867.5,230.5 867.5,172.5 867.5,114.5 Z M 891.5,134.5 C 933.867,134.033 976.201,134.533 1018.5,136C 1028,137.5 1033.5,143 1035,152.5C 1035.67,162.5 1035.67,172.5 1035,182.5C 1032.84,191.324 1027.34,196.824 1018.5,199C 976.201,200.467 933.867,200.967 891.5,200.5C 891.5,178.5 891.5,156.5 891.5,134.5 Z"/>
        <path style="opacity:0.974" fill="#000000"
              d="M 1880.5,114.5 C 1880.5,172.5 1880.5,230.5 1880.5,288.5C 1873.5,288.5 1866.5,288.5 1859.5,288.5C 1859.5,230.5 1859.5,172.5 1859.5,114.5C 1866.5,114.5 1873.5,114.5 1880.5,114.5 Z"/>
        <path style="opacity:0.934" fill="#000000"
              d="M 1504.5,136.5 C 1511.83,136.5 1519.17,136.5 1526.5,136.5C 1526.5,146.167 1526.5,155.833 1526.5,165.5C 1553.5,165.5 1580.5,165.5 1607.5,165.5C 1607.5,171.5 1607.5,177.5 1607.5,183.5C 1580.5,183.5 1553.5,183.5 1526.5,183.5C 1526.33,206.836 1526.5,230.169 1527,253.5C 1528.2,262.43 1533.03,268.263 1541.5,271C 1552.45,272.546 1563.45,272.879 1574.5,272C 1585.58,271.256 1591.74,265.423 1593,254.5C 1593.5,247.174 1593.67,239.841 1593.5,232.5C 1599.5,232.5 1605.5,232.5 1611.5,232.5C 1612.01,244.941 1611.18,257.274 1609,269.5C 1603.92,280.97 1595.09,287.47 1582.5,289C 1566.83,291 1551.17,291 1535.5,289C 1520.05,286.875 1510.22,278.375 1506,263.5C 1504.55,236.871 1504.05,210.204 1504.5,183.5C 1495.5,183.5 1486.5,183.5 1477.5,183.5C 1477.5,177.5 1477.5,171.5 1477.5,165.5C 1486.5,165.5 1495.5,165.5 1504.5,165.5C 1504.5,155.833 1504.5,146.167 1504.5,136.5 Z"/>
        <path style="opacity:0.942" fill="#000000"
              d="M 1160.5,163.5 C 1177.17,163.333 1193.84,163.5 1210.5,164C 1224.68,164.035 1238.01,167.368 1250.5,174C 1261.38,181.594 1267.21,192.094 1268,205.5C 1268.67,219.833 1268.67,234.167 1268,248.5C 1266.2,266.292 1257.03,278.459 1240.5,285C 1234.94,286.806 1229.28,288.139 1223.5,289C 1196.46,291.26 1169.46,290.926 1142.5,288C 1121.16,284.652 1108.32,272.486 1104,251.5C 1103.33,235.167 1103.33,218.833 1104,202.5C 1108.35,181.491 1121.18,169.324 1142.5,166C 1148.65,165.162 1154.65,164.329 1160.5,163.5 Z M 1154.5,181.5 C 1175.5,181.333 1196.5,181.5 1217.5,182C 1233.07,182.676 1242.57,190.51 1246,205.5C 1246.67,219.833 1246.67,234.167 1246,248.5C 1242.83,263.191 1233.66,271.024 1218.5,272C 1196.83,272.667 1175.17,272.667 1153.5,272C 1136.45,270.617 1126.95,261.451 1125,244.5C 1124.12,230.792 1124.45,217.125 1126,203.5C 1127.25,197.157 1130.42,191.99 1135.5,188C 1141.59,184.694 1147.92,182.528 1154.5,181.5 Z"/>
        <path style="opacity:0.935" fill="#000000"
              d="M 1373.5,163.5 C 1388.53,163.191 1403.53,163.691 1418.5,165C 1435.35,166.481 1445.85,175.314 1450,191.5C 1451.26,201.459 1451.76,211.459 1451.5,221.5C 1444.83,221.5 1438.17,221.5 1431.5,221.5C 1431.77,211.198 1430.27,201.198 1427,191.5C 1421.02,184.934 1413.52,181.767 1404.5,182C 1392.83,181.333 1381.17,181.333 1369.5,182C 1356.22,183.951 1348.05,191.451 1345,204.5C 1344.5,232.498 1344.33,260.498 1344.5,288.5C 1337.17,288.5 1329.83,288.5 1322.5,288.5C 1322.5,247.5 1322.5,206.5 1322.5,165.5C 1329.17,165.5 1335.83,165.5 1342.5,165.5C 1342.33,171.176 1342.5,176.843 1343,182.5C 1349.8,170.685 1359.97,164.352 1373.5,163.5 Z"/>
        <path style="opacity:0.938" fill="#000000"
              d="M 1695.5,163.5 C 1717.86,163.146 1740.19,163.646 1762.5,165C 1777.87,165.427 1789.7,171.927 1798,184.5C 1800.58,190.226 1801.91,196.226 1802,202.5C 1802.5,231.165 1802.67,259.831 1802.5,288.5C 1795.17,288.5 1787.83,288.5 1780.5,288.5C 1780.67,285.15 1780.5,281.817 1780,278.5C 1777.78,282.388 1774.61,285.221 1770.5,287C 1764.97,288.726 1759.3,289.726 1753.5,290C 1726.47,290.936 1699.47,290.603 1672.5,289C 1658.88,286.377 1651.04,278.211 1649,264.5C 1641.12,230.751 1654.28,213.918 1688.5,214C 1709.17,213.333 1729.83,213.333 1750.5,214C 1759.53,214.006 1767.86,216.339 1775.5,221C 1777.36,222.558 1778.86,224.391 1780,226.5C 1780.67,217.5 1780.67,208.5 1780,199.5C 1778.28,191.444 1773.44,186.277 1765.5,184C 1761.21,183.088 1756.87,182.421 1752.5,182C 1733.17,181.333 1713.83,181.333 1694.5,182C 1680.61,182.054 1674.27,188.887 1675.5,202.5C 1668.17,202.5 1660.83,202.5 1653.5,202.5C 1650.68,184.625 1657.68,172.792 1674.5,167C 1681.58,165.443 1688.58,164.276 1695.5,163.5 Z M 1689.5,231.5 C 1711.5,231.333 1733.5,231.5 1755.5,232C 1774.74,231.565 1782.91,240.732 1780,259.5C 1778.97,262.539 1777.14,265.039 1774.5,267C 1770.35,268.937 1766.02,270.271 1761.5,271C 1735.16,272.969 1708.82,272.969 1682.5,271C 1677.29,269.983 1673.46,267.149 1671,262.5C 1665.03,244.398 1671.19,234.064 1689.5,231.5 Z"/>
    </g>
</svg>
